<?xml version="1.0" encoding="UTF-8" standalone="no"?>
<svg
   xmlns:dc="http://purl.org/dc/elements/1.1/"
   xmlns:cc="http://creativecommons.org/ns#"
   xmlns:rdf="http://www.w3.org/1999/02/22-rdf-syntax-ns#"
   xmlns:svg="http://www.w3.org/2000/svg"
   xmlns="http://www.w3.org/2000/svg"
   width="218.09448"
   height="122.3622"
   viewBox="0 0 218.09449 122.36221"
   id="svg2"
   version="1.1">
  <defs
     id="defs4" />
  <metadata
     id="metadata7">
    <rdf:RDF>
      <cc:Work
         rdf:about="">
        <dc:format>image/svg+xml</dc:format>
        <dc:type
           rdf:resource="http://purl.org/dc/dcmitype/StillImage" />
        <dc:title></dc:title>
      </cc:Work>
    </rdf:RDF>
  </metadata>
  <g
     id="layer1"
     transform="translate(0,-929.98052)">
    <g
       id="g3397">
      <rect
         rx="33.78014"
         ry="26.777409"
         y="931.75677"
         x="1.8841467"
         height="119.24011"
         width="214.87769"
         id="rect4148"
         style="fill:#000016;fill-opacity:0.5" />
      <g
         style="font-style:normal;font-weight:normal;font-size:40px;line-height:125%;font-family:sans-serif;letter-spacing:0px;word-spacing:0px;opacity:1;fill:#ececec;fill-opacity:1;stroke:none;stroke-width:1px;stroke-linecap:butt;stroke-linejoin:miter;stroke-opacity:1"
         id="text4136">
        <path
           d="m 55.01635,960.73486 0,3.39844 q -1.523438,-0.78125 -3.164063,-1.17187 -1.640625,-0.39063 -3.398437,-0.39063 -2.675781,0 -4.023438,0.82031 -1.328125,0.82032 -1.328125,2.46094 0,1.25 0.957032,1.97266 0.957031,0.70312 3.847656,1.34765 l 1.230469,0.27344 q 3.828125,0.82031 5.429687,2.32422 1.621094,1.48437 1.621094,4.16016 0,3.04687 -2.421875,4.82421 -2.402344,1.77735 -6.621094,1.77735 -1.757812,0 -3.671875,-0.35156 -1.894531,-0.33204 -4.003906,-1.01563 l 0,-3.71094 q 1.992187,1.03516 3.925781,1.5625 1.933594,0.50782 3.828125,0.50782 2.539063,0 3.90625,-0.85938 1.367188,-0.87891 1.367188,-2.46094 0,-1.46484 -0.996094,-2.24609 -0.976563,-0.78125 -4.316406,-1.50391 l -1.25,-0.29297 q -3.339844,-0.70312 -4.824219,-2.14843 -1.484375,-1.46485 -1.484375,-4.00391 0,-3.08594 2.1875,-4.76562 2.1875,-1.67969 6.210937,-1.67969 1.992188,0 3.75,0.29297 1.757813,0.29297 3.242188,0.8789 z"
           style=""
           id="path3374" />
        <path
           d="m 65.4851,953.87939 0,6.21094 7.402344,0 0,2.79297 -7.402344,0 0,11.875 q 0,2.67578 0.722656,3.4375 0.742188,0.76172 2.988281,0.76172 l 3.691407,0 0,3.00781 -3.691407,0 q -4.160156,0 -5.742187,-1.54297 -1.582031,-1.5625 -1.582031,-5.66406 l 0,-11.875 -2.636719,0 0,-2.79297 2.636719,0 0,-6.21094 3.613281,0 z"
           style=""
           id="path3376" />
        <path
           d="m 87.574944,970.96924 q -4.355469,0 -6.035157,0.99609 -1.679687,0.9961 -1.679687,3.39844 0,1.91406 1.25,3.04687 1.269531,1.11329 3.4375,1.11329 2.988281,0 4.785156,-2.10938 1.816406,-2.12891 1.816406,-5.64453 l 0,-0.80078 -3.574218,0 z m 7.167968,-1.48438 0,12.48047 -3.59375,0 0,-3.32031 q -1.230468,1.99219 -3.066406,2.94922 -1.835937,0.9375 -4.492187,0.9375 -3.359375,0 -5.351563,-1.875 -1.972656,-1.89453 -1.972656,-5.0586 0,-3.6914 2.460937,-5.5664 2.480469,-1.875 7.382813,-1.875 l 5.039062,0 0,-0.35156 q 0,-2.48047 -1.640625,-3.82813 -1.621093,-1.36719 -4.570312,-1.36719 -1.875,0 -3.652344,0.44922 -1.777344,0.44922 -3.417969,1.34766 l 0,-3.32031 q 1.972657,-0.76172 3.828125,-1.13282 1.855469,-0.39062 3.613282,-0.39062 4.746093,0 7.089843,2.46094 2.34375,2.46093 2.34375,7.46093 z"
           style=""
           id="path3378" />
        <path
           d="m 114.84057,963.44971 q -0.60547,-0.35157 -1.32813,-0.50782 -0.70312,-0.17578 -1.5625,-0.17578 -3.04687,0 -4.6875,1.99219 -1.62109,1.97266 -1.62109,5.68359 l 0,11.52344 -3.61328,0 0,-21.875 3.61328,0 0,3.39844 q 1.13281,-1.99219 2.94922,-2.94922 1.8164,-0.97656 4.41406,-0.97656 0.37109,0 0.82031,0.0586 0.44922,0.0391 0.9961,0.13672 l 0.0195,3.69141 z"
           style=""
           id="path3380" />
        <path
           d="m 122.20385,953.87939 0,6.21094 7.40234,0 0,2.79297 -7.40234,0 0,11.875 q 0,2.67578 0.72266,3.4375 0.74218,0.76172 2.98828,0.76172 l 3.6914,0 0,3.00781 -3.6914,0 q -4.16016,0 -5.74219,-1.54297 -1.58203,-1.5625 -1.58203,-5.66406 l 0,-11.875 -2.63672,0 0,-2.79297 2.63672,0 0,-6.21094 3.61328,0 z"
           style=""
           id="path3382" />
        <path
           d="m 133.98119,973.33252 0,-13.24219 3.59375,0 0,13.10547 q 0,3.10547 1.21094,4.66797 1.21094,1.54297 3.63281,1.54297 2.91016,0 4.58985,-1.85547 1.69922,-1.85547 1.69922,-5.05859 l 0,-12.40235 3.59375,0 0,21.875 -3.59375,0 0,-3.35937 q -1.3086,1.99218 -3.04688,2.96875 -1.71875,0.95703 -4.00391,0.95703 -3.76953,0 -5.72265,-2.34375 -1.95313,-2.34375 -1.95313,-6.85547 z m 9.04297,-13.76953 0,0 z"
           style=""
           id="path3384" />
        <path
           d="m 163.21947,978.68408 0,11.60156 -3.61328,0 0,-30.19531 3.61328,0 0,3.32031 q 1.13282,-1.95312 2.85157,-2.89062 1.73828,-0.95703 4.14062,-0.95703 3.98438,0 6.46485,3.16406 2.5,3.16406 2.5,8.32031 0,5.15625 -2.5,8.32032 -2.48047,3.16406 -6.46485,3.16406 -2.40234,0 -4.14062,-0.9375 -1.71875,-0.95703 -2.85157,-2.91016 z m 12.22657,-7.63672 q 0,-3.96484 -1.64063,-6.21093 -1.62109,-2.26563 -4.47265,-2.26563 -2.85157,0 -4.49219,2.26563 -1.6211,2.24609 -1.6211,6.21093 0,3.96485 1.6211,6.23047 1.64062,2.2461 4.49219,2.2461 2.85156,0 4.47265,-2.2461 1.64063,-2.26562 1.64063,-6.23047 z"
           style=""
           id="path3386" />
      </g>
      <g
         transform="scale(1.0183885,0.98194353)"
         style="font-style:normal;font-weight:normal;font-size:38.27350998px;line-height:125%;font-family:sans-serif;letter-spacing:0px;word-spacing:0px;fill:#ffffff;fill-opacity:1;stroke:none;stroke-width:1px;stroke-linecap:butt;stroke-linejoin:miter;stroke-opacity:1"
         id="text4144">
        <path
           d="m 64.326347,1020.735 q 0,1.9137 -0.657826,2.9303 -0.598023,1.0167 -2.332292,1.0167 -1.076442,0 -1.794071,-0.6578 -0.717628,-0.6579 -1.196047,-1.3755 -0.418616,-0.7774 -2.03328,-1.4353 -1.554861,-0.6578 -4.245968,-0.6578 -2.272489,0 -4.126363,0.6578 -1.79407,0.5981 -1.79407,1.4353 0,1.1961 2.631304,1.7343 2.631303,0.4784 6.578259,1.0764 3.946956,0.598 6.040039,1.7941 1.973478,1.0764 3.04992,2.8705 1.136245,1.7941 1.136245,3.8872 0,3.6479 -3.767549,6.04 -3.767549,2.3921 -9.568378,2.3921 -5.202805,0 -8.850749,-1.7343 -0.897035,0.7176 -1.913675,0.7176 -3.049921,0 -3.049921,-3.9469 l 0,-1.9735 q 0,-4.0067 3.049921,-4.0067 2.272489,0 3.04992,2.6313 2.571501,2.3323 7.475295,2.3323 2.870513,0 4.903794,-0.7775 2.093082,-0.7774 2.093082,-1.794 0,-2.3323 -7.535097,-3.1098 -6.279248,-0.6578 -9.089959,-2.5715 -2.810711,-1.9136 -2.810711,-5.442 0,-3.5881 3.468537,-5.8606 3.468537,-2.3323 8.850749,-2.3323 4.365573,0 7.714505,1.5548 0.657826,-1.5548 1.913675,-1.5548 2.810711,0 2.810711,3.9469 l 0,2.2127 z"
           style="font-style:normal;font-variant:normal;font-weight:bold;font-stretch:normal;font-size:59.80236053px;line-height:125%;font-family:FreeMono;-inkscape-font-specification:'FreeMono, Bold';text-align:start;writing-mode:lr-tb;text-anchor:start;fill:#ffffff"
           id="path3389" />
        <path
           d="m 88.044523,1014.5754 q 6.33905,0 10.764425,4.0665 4.485182,4.0666 4.485182,9.8674 0,5.8607 -4.485182,9.9272 -4.485177,4.0068 -10.943832,4.0068 -6.458655,0 -10.943832,-4.0068 -4.485177,-4.0665 -4.485177,-9.9272 0,-5.9204 4.485177,-9.9272 4.485177,-4.0067 11.123239,-4.0067 z m -0.0598,5.9802 q -4.066561,0 -6.817469,2.2725 -2.750909,2.2725 -2.750909,5.6812 0,3.349 2.691106,5.6813 2.750909,2.2725 6.757667,2.2725 4.006758,0 6.697864,-2.2725 2.750909,-2.3323 2.750909,-5.6813 0,-3.3489 -2.750909,-5.6214 -2.691106,-2.3323 -6.578259,-2.3323 z"
           style="font-style:normal;font-variant:normal;font-weight:bold;font-stretch:normal;font-size:59.80236053px;line-height:125%;font-family:FreeMono;-inkscape-font-specification:'FreeMono, Bold';text-align:start;writing-mode:lr-tb;text-anchor:start;fill:#ffffff"
           id="path3391" />
        <path
           d="m 108.29416,1034.37 q 0,-4.0666 4.00676,-7.0567 4.00676,-3.0499 10.46541,-3.0499 2.69111,0 6.21945,0.598 l 0,-1.3755 q 0,-2.9303 -5.56162,-2.9303 -2.4519,0 -5.56162,0.7177 -3.10972,0.6578 -3.76755,0.6578 -1.25585,0 -2.09308,-0.8373 -0.83723,-0.897 -0.83723,-2.2126 0,-1.9137 1.79407,-2.5117 5.0832,-1.7941 10.286,-1.7941 5.50182,0 8.61154,2.3323 3.16953,2.3323 3.16953,6.5184 l 0,12.0801 0.95684,0 q 3.94695,0 3.94695,2.9901 0,2.9902 -3.94695,2.9902 l -6.99688,0 0,-1.3755 q -4.48518,2.3323 -9.92719,2.3323 -4.42538,0 -7.5949,-2.3323 -3.16953,-2.3921 -3.16953,-5.741 z m 20.75142,-0.9569 0,-2.9901 q -3.76755,-0.6578 -6.63806,-0.6578 -3.04992,0 -5.44202,1.3156 -2.33229,1.3157 -2.33229,3.05 0,1.0166 1.31565,1.6744 1.31566,0.6579 3.22933,0.6579 4.9038,0 9.86739,-3.05 z"
           style="font-style:normal;font-variant:normal;font-weight:bold;font-stretch:normal;font-size:59.80236053px;line-height:125%;font-family:FreeMono;-inkscape-font-specification:'FreeMono, Bold';text-align:start;writing-mode:lr-tb;text-anchor:start;fill:#ffffff"
           id="path3393" />
        <path
           d="m 141.64052,1018.3429 q 0,-2.9901 3.94695,-2.9901 l 6.93708,0 0,2.6911 q 4.06656,-3.4685 9.14976,-3.4685 6.27925,0 10.40561,3.8871 4.18616,3.8274 4.18616,9.6282 0,5.5018 -4.12636,9.1498 -4.12636,3.6479 -10.34581,3.6479 -4.90379,0 -9.26936,-3.3489 l 0,9.9272 3.46853,0 q 1.97348,0 2.93032,0.598 1.01664,0.6578 1.01664,2.3921 0,2.9901 -3.94696,2.9901 l -10.40561,0 q -3.94695,0 -3.94695,-2.9901 0,-2.9901 3.94695,-2.9901 l 0.95684,0 0,-26.1336 -0.95684,0 q -1.91367,0 -2.93031,-0.5981 -1.01664,-0.6578 -1.01664,-2.3921 z m 26.13363,14.532 q 2.5117,-2.0333 2.5117,-5.143 0,-3.1097 -2.4519,-5.143 -2.45189,-2.0333 -6.39885,-2.0333 -4.00676,0 -6.45866,2.0333 -2.45189,2.0333 -2.45189,5.0832 0,3.1695 2.45189,5.2028 2.5117,2.0333 6.45866,2.0333 3.88715,0 6.33905,-2.0333 z"
           style="font-style:normal;font-variant:normal;font-weight:bold;font-stretch:normal;font-size:59.80236053px;line-height:125%;font-family:FreeMono;-inkscape-font-specification:'FreeMono, Bold';text-align:start;writing-mode:lr-tb;text-anchor:start;fill:#ffffff"
           id="path3395" />
      </g>
    </g>
  </g>
  <g
     id="layer2"
     transform="translate(0,-929.98052)" />
</svg>
